<svg xmlns="http://www.w3.org/2000/svg" width="102" height="102" viewBox="0 0 102 102"><g transform="translate(-4821 -4965)"><g transform="translate(4840.739 4985.478)"><path d="M0,14.557v-4.1H16.88l1-6.148H13.616V.211h9.09L21.033,10.458H61.525l-3.537,21.65A5.312,5.312,0,0,1,52.933,36.4H16.8l-1.227,7.515H57.29v4.1H10.749l1.9-11.614H0V32.3H13.314l1.123-6.88H0v-4.1H15.106l1.1-6.766Z" transform="translate(0 -0.211)" fill="#fff"/><ellipse cx="4.782" cy="4.782" rx="4.782" ry="4.782" transform="translate(47.726 51.903)" fill="#fff"/><ellipse cx="4.782" cy="4.782" rx="4.782" ry="4.782" transform="translate(12.803 51.903)" fill="#fff"/></g><g transform="translate(4821 4965)" fill="none" stroke="#fff" stroke-width="5"><circle cx="51" cy="51" r="51" stroke="none"/><circle cx="51" cy="51" r="48.5" fill="none"/></g></g></svg>