<svg xmlns="http://www.w3.org/2000/svg" width="65.093" height="58.72" viewBox="0 0 65.093 58.72"><g transform="translate(-377 -689.917)"><path d="M40.093-17.183H26.785V-3.875H21.226V-17.183H7.917v-5.559H21.226V-36.083h5.559v13.342H40.093Z" transform="translate(402 726)" fill="#fff"/><g transform="translate(377 710)"><path d="M0,8.84V6.375H9.6l.571-3.7H7.746V.211h5.171l-.952,6.164H35L32.988,19.4a3.077,3.077,0,0,1-2.875,2.582H9.556l-.7,4.52H32.591v2.466H6.115L7.193,21.98H0V19.514H7.574l.639-4.139H0V12.91H8.594l.628-4.07Z" transform="translate(0 -0.211)" fill="#fff"/><ellipse cx="3.459" cy="3.459" rx="3.459" ry="3.459" transform="translate(25.02 31.719)" fill="#fff"/><ellipse cx="3.459" cy="3.459" rx="3.459" ry="3.459" transform="translate(6.919 31.719)" fill="#fff"/></g></g></svg>