<svg xmlns="http://www.w3.org/2000/svg" width="417" height="181" viewBox="0 0 417 181"><g transform="translate(-239 -678)"><circle cx="82" cy="82" r="82" transform="translate(365 678)" fill="#fff"/><rect width="417" height="99" rx="49.5" transform="translate(239 760)" fill="#fff"/><text transform="translate(308 824)" fill="#38393d" font-size="32" font-family="SegoeUI-Bold, Segoe UI" font-weight="700"><tspan x="0" y="0">BEST-HONEY.COM</tspan></text><g transform="translate(406.144 698)"><circle cx="8.639" cy="8.639" r="8.639" transform="translate(32.466 7.838)" fill="#f9c900"/><path d="M199.83,80.664A8.637,8.637,0,0,1,193.547,66.1a8.639,8.639,0,1,0,9.325,14.013A8.619,8.619,0,0,1,199.83,80.664Z" transform="translate(-155.485 -57.707)" fill="#f9aa0c"/><path d="M145.42,214.041c0-7.753,6.285-16.2,14.039-16.2s14.038,8.445,14.038,16.2-14.038,22.677-14.038,22.677S145.42,221.794,145.42,214.041Z" transform="translate(-118.354 -172.727)" fill="#836134"/><path d="M150.82,216.2c0-7.753,6.285-16.2,14.039-16.2a10.69,10.69,0,0,1,1.367.089,11.8,11.8,0,0,0-6.767-2.248c-7.753,0-14.038,8.445-14.038,16.2s14.038,22.677,14.038,22.677.7-.741,1.778-1.975C157.077,229.749,150.82,221.377,150.82,216.2Z" transform="translate(-118.355 -172.727)" fill="#754f1e"/><g transform="translate(27.106 33.755)"><path d="M157.154,367.965a45.659,45.659,0,0,0,3.826,6.479h17.445a45.662,45.662,0,0,0,3.826-6.479Z" transform="translate(-155.704 -355.006)" fill="#fad433"/><path d="M171.9,265.892h-24.33a17.448,17.448,0,0,0-1.833,6.479h28A17.447,17.447,0,0,0,171.9,265.892Z" transform="translate(-145.736 -265.892)" fill="#fad433"/></g><g transform="translate(27.106 33.755)"><path d="M157.154,367.965a45.659,45.659,0,0,0,3.826,6.479h3.969a31.688,31.688,0,0,1-3.269-6.479Z" transform="translate(-155.704 -355.006)" fill="#fabb3d"/><path d="M147.569,265.892a17.448,17.448,0,0,0-1.833,6.479h5.709a18.352,18.352,0,0,1,2.8-6.479Z" transform="translate(-145.736 -265.892)" fill="#fabb3d"/></g><path d="M256,138.433s16.826-8.639,21.6-8.639a8.639,8.639,0,0,1,0,17.278C272.827,147.072,256,138.433,256,138.433Z" transform="translate(-214.895 -113.317)" fill="#f1ede8"/><path d="M278.677,190.294c-3.575,0-13.918-4.85-18.88-7.282-2.267,1.1-3.8,1.883-3.8,1.883s16.826,8.639,21.6,8.639a8.639,8.639,0,0,0,8.572-7.58A8.634,8.634,0,0,1,278.677,190.294Z" transform="translate(-214.894 -159.778)" fill="#e3dcd2"/><path d="M48.065,138.433s-16.826-8.639-21.6-8.639a8.639,8.639,0,1,0,0,17.278C31.238,147.072,48.065,138.433,48.065,138.433Z" transform="translate(-6.96 -113.317)" fill="#f1ede8"/><path d="M25.847,190.294c3.575,0,13.918-4.85,18.88-7.282,2.267,1.1,3.8,1.883,3.8,1.883s-16.826,8.639-21.6,8.639a8.639,8.639,0,0,1-8.572-7.58A8.633,8.633,0,0,0,25.847,190.294Z" transform="translate(-7.42 -159.778)" fill="#e3dcd2"/><path d="M274.556,89.82h.135a1.012,1.012,0,1,0,0-2.025h-.135a1.012,1.012,0,1,0,0,2.025Z" transform="translate(-230.212 -76.65)"/><path d="M223.654,87.794h-.135a1.012,1.012,0,1,0,0,2.025h.135a1.012,1.012,0,1,0,0-2.025Z" transform="translate(-185.654 -76.649)"/><path d="M62.7,15.465a13.873,13.873,0,0,0-3.816.765,1.012,1.012,0,0,0,.6,1.934A11.85,11.85,0,0,1,62.7,17.49a7.627,7.627,0,0,1,0,15.253c-3.306,0-13.819-4.881-19.345-7.625,2.416-1.2,6.9-3.363,11.061-5.08a1.012,1.012,0,0,0-.772-1.872c-1.133.467-2.289.967-3.421,1.471A9.648,9.648,0,0,0,47,8.842L49.253,3.4a2.227,2.227,0,1,1,4.116,1.7,1.012,1.012,0,0,0,1.871.775,4.252,4.252,0,1,0-7.856-3.254L45.254,7.765a9.636,9.636,0,0,0-8.3,0L34.828,2.627a4.252,4.252,0,1,0-7.857,3.254,1.012,1.012,0,1,0,1.871-.775,2.227,2.227,0,1,1,4.115-1.7l2.254,5.441a9.648,9.648,0,0,0-3.232,10.781c-4.76-2.119-9.987-4.158-12.471-4.158a9.651,9.651,0,1,0,0,19.3c1.93,0,5.515-1.231,9.251-2.774a18.553,18.553,0,0,0-2.7,9.321c0,1.956.794,4.44,2.362,7.383a1.013,1.013,0,1,0,1.777-.971H52.02A48.716,48.716,0,0,1,49.3,52.181H32.916q-.191-.281-.379-.563a1.012,1.012,0,1,0-1.687,1.12,105.546,105.546,0,0,0,9.517,11.947,1.023,1.023,0,0,0,1.475,0c.584-.621,14.313-15.309,14.313-23.371a18.545,18.545,0,0,0-2.7-9.32c3.736,1.543,7.321,2.774,9.251,2.774a9.651,9.651,0,1,0,0-19.3ZM34.822,20.8a7.627,7.627,0,1,1,12.526.056.991.991,0,0,0-.075.128c-2.843,1.327-5.2,2.507-6.167,2.993-1.066-.542-3.4-1.713-6.194-3.018A1.033,1.033,0,0,0,34.822,20.8ZM11.88,25.116a7.635,7.635,0,0,1,7.627-7.627c3.307,0,13.825,4.883,19.349,7.627-5.524,2.744-16.042,7.627-19.349,7.627A7.635,7.635,0,0,1,11.88,25.116ZM53.971,39.222H28.239a16.758,16.758,0,0,1,1.341-4.455H52.63A16.734,16.734,0,0,1,53.971,39.222ZM41.1,62.492c-1.294-1.436-4.091-4.63-6.761-8.287H47.865c-.177.243-.357.487-.541.734C44.832,58.278,42.314,61.152,41.1,62.492ZM53,45.7H29.212a11.564,11.564,0,0,1-1.133-4.388c0-.022,0-.045,0-.068H54.13c0,.023,0,.045,0,.068A11.563,11.563,0,0,1,53,45.7ZM50.078,30.747a16.951,16.951,0,0,1,1.461,2H30.671A16.911,16.911,0,0,1,32.1,30.778a1.006,1.006,0,0,0,.176-.3c3.9-1.745,7.435-3.516,8.823-4.221,1.386.7,4.913,2.47,8.8,4.213A1.014,1.014,0,0,0,50.078,30.747Z"/></g></g></svg>